<?xml version="1.0" standalone="no"?>
<!DOCTYPE svg PUBLIC "-//W3C//DTD SVG 20010904//EN"
 "http://www.w3.org/TR/2001/REC-SVG-20010904/DTD/svg10.dtd">
<svg version="1.0" xmlns="http://www.w3.org/2000/svg"
 width="225.000000pt" height="225.000000pt" viewBox="0 0 225.000000 225.000000"
 preserveAspectRatio="xMidYMid meet">
<metadata>
Created by potrace 1.16, written by Peter Selinger 2001-2019
</metadata>
<g transform="translate(0.000000,225.000000) scale(0.100000,-0.100000)"
fill="#000000" stroke="none">
<path d="M0 1125 l0 -1125 548 1 c333 1 516 5 467 10 -490 47 -897 421 -989
909 -20 106 -20 304 0 410 90 477 490 854 965 909 49 6 -103 9 -458 10 l-533
1 0 -1125z"/>
<path d="M1215 2240 c129 -8 205 -24 322 -71 262 -104 468 -293 592 -544 62
-125 89 -205 106 -315 12 -77 13 -38 14 428 l1 512 -577 -2 c-348 -1 -530 -4
-458 -8z"/>
<path d="M955 2055 c-313 -59 -582 -282 -705 -582 -49 -122 -78 -302 -65 -408
l7 -56 57 8 c31 4 110 7 176 5 l120 -3 0 98 c0 90 3 104 32 166 18 38 42 81
53 96 19 27 19 32 5 97 -24 115 -14 223 24 244 39 20 159 -23 236 -85 l40 -33
75 20 c61 16 97 19 190 15 63 -3 137 -12 164 -21 l49 -15 42 34 c49 40 134 80
188 88 52 8 73 -15 82 -86 7 -55 3 -102 -16 -189 -10 -42 -8 -51 10 -77 12
-17 34 -56 49 -88 24 -51 27 -70 27 -163 l0 -105 138 0 137 0 0 110 c0 191
-52 370 -150 515 -65 98 -212 239 -305 294 -204 119 -441 162 -660 121z"/>
<path d="M2240 995 c0 -104 -67 -304 -148 -443 -178 -302 -500 -508 -847 -541
-49 -5 132 -9 463 -10 l542 -1 0 515 c0 283 -2 515 -5 515 -3 0 -5 -16 -5 -35z"/>
<path d="M294 929 c-88 -27 -90 -32 -54 -125 105 -266 295 -460 549 -561 79
-32 82 -29 79 92 l-3 90 -105 5 c-58 3 -112 9 -120 14 -35 21 -64 55 -100 116
-21 36 -59 85 -84 110 -25 24 -46 48 -46 52 0 15 55 8 92 -11 21 -10 61 -44
90 -76 60 -66 97 -85 165 -85 95 1 132 14 184 66 27 27 49 51 49 54 0 3 -31
13 -68 23 -142 37 -255 108 -313 197 -17 27 -41 51 -53 54 -48 13 -202 5 -262
-15z"/>
<path d="M1740 900 c-65 -102 -175 -172 -322 -207 l-66 -16 34 -42 c62 -76 87
-147 91 -260 2 -55 6 -106 8 -113 3 -9 19 -5 57 14 146 73 290 201 381 339 50
76 113 220 123 283 6 38 5 39 -26 46 -18 3 -81 6 -140 6 l-108 0 -32 -50z"/>
<path d="M1142 408 c-8 -8 -12 -49 -12 -121 l0 -108 43 3 42 3 0 108 c-1 83
-4 110 -15 118 -21 12 -44 11 -58 -3z"/>
</g>
</svg>
