<?xml version="1.0" standalone="no"?>
<!DOCTYPE svg PUBLIC "-//W3C//DTD SVG 20010904//EN"
 "http://www.w3.org/TR/2001/REC-SVG-20010904/DTD/svg10.dtd">
<svg version="1.0" xmlns="http://www.w3.org/2000/svg"
 width="225.000000pt" height="225.000000pt" viewBox="0 0 225.000000 225.000000"
 preserveAspectRatio="xMidYMid meet">
<metadata>
Created by potrace 1.16, written by Peter Selinger 2001-2019
</metadata>
<g transform="translate(0.000000,225.000000) scale(0.100000,-0.100000)"
fill="#000000" stroke="none">
<path d="M640 2140 c-126 -17 -222 -59 -320 -141 -200 -166 -260 -394 -160
-604 70 -146 256 -264 419 -265 32 0 33 -1 27 -32 -3 -18 -9 -55 -12 -84 l-7
-52 -46 -7 c-223 -31 -413 -141 -489 -282 -60 -113 -66 -261 -15 -355 69 -127
211 -187 489 -210 311 -25 578 43 706 180 57 61 73 91 88 168 25 128 -18 223
-186 404 -125 135 -170 210 -180 295 l-6 50 43 21 c68 33 160 107 202 163 54
71 79 142 80 226 1 80 -27 155 -82 217 l-32 37 38 20 c72 36 160 142 146 176
-2 8 -71 23 -171 39 -281 45 -406 53 -532 36z m-39 -271 c89 -45 192 -167 251
-296 40 -89 49 -192 20 -239 -37 -58 -139 -82 -215 -50 -71 29 -157 148 -191
265 -19 65 -21 168 -4 225 11 34 76 116 93 116 3 0 24 -9 46 -21z m241 -1113
c81 -29 116 -53 153 -106 77 -111 23 -230 -140 -313 -106 -53 -297 -63 -381
-19 -51 26 -98 79 -114 127 -16 50 -8 180 13 222 40 77 132 111 297 112 86 0
117 -4 172 -23z"/>
<path d="M1667 1637 l-29 -11 3 -166 3 -165 -174 -8 c-96 -5 -179 -13 -185
-18 -14 -14 -19 -143 -6 -168 7 -11 20 -21 30 -21 10 0 21 -3 25 -7 4 -4 71
-6 149 -5 78 2 148 -1 155 -6 10 -7 16 -54 22 -163 8 -151 14 -189 30 -189 4
0 10 -9 13 -20 4 -17 14 -20 54 -20 99 0 119 42 116 248 l-2 142 84 0 c46 0
119 5 162 11 43 6 87 12 98 13 16 1 22 11 29 54 5 32 5 72 0 100 l-9 47 -180
8 c-120 5 -182 12 -187 20 -4 7 -8 50 -8 97 0 47 -3 115 -6 151 l-7 67 -68 11
c-77 13 -74 13 -112 -2z"/>
</g>
</svg>
