<?xml version="1.0" standalone="no"?>
<!DOCTYPE svg PUBLIC "-//W3C//DTD SVG 20010904//EN"
 "http://www.w3.org/TR/2001/REC-SVG-20010904/DTD/svg10.dtd">
<svg version="1.0" xmlns="http://www.w3.org/2000/svg"
 width="225.000000pt" height="225.000000pt" viewBox="0 0 225.000000 225.000000"
 preserveAspectRatio="xMidYMid meet">
<metadata>
Created by potrace 1.16, written by Peter Selinger 2001-2019
</metadata>
<g transform="translate(0.000000,225.000000) scale(0.100000,-0.100000)"
fill="#000000" stroke="none">
<path d="M931 2025 c-314 -71 -559 -265 -691 -549 -66 -140 -84 -228 -84 -406
0 -113 4 -174 17 -224 102 -408 433 -699 850 -747 480 -56 933 265 1054 747
27 108 24 352 -6 464 -90 337 -341 595 -678 696 -75 23 -111 27 -243 30 -110
3 -174 -1 -219 -11z m518 -530 c23 -8 56 -26 75 -40 l33 -25 55 19 c31 11 66
24 78 31 21 11 21 11 4 -22 -9 -18 -30 -48 -47 -65 -35 -38 -25 -42 43 -18 24
8 45 13 47 11 2 -2 -23 -30 -55 -63 -58 -59 -59 -61 -65 -130 -8 -100 -32
-186 -80 -283 -56 -116 -187 -249 -297 -302 -202 -99 -423 -101 -615 -8 l-80
38 46 1 c74 1 148 19 221 53 81 37 104 58 64 58 -61 0 -149 59 -182 122 -19
37 -18 47 6 41 11 -3 31 -2 46 1 25 7 24 8 -25 32 -73 37 -131 121 -131 190 0
21 4 25 18 19 9 -3 30 -9 46 -12 l28 -6 -36 47 c-19 26 -41 66 -47 89 -13 47
-7 134 11 167 12 22 13 21 68 -33 108 -105 261 -180 394 -194 l53 -5 1 58 c2
135 108 240 245 243 20 1 55 -6 78 -14z"/>
</g>
</svg>
